<?xml version="1.0" encoding="utf-8"?>
<!-- Generator: Adobe Illustrator 15.0.2, SVG Export Plug-In . SVG Version: 6.00 Build 0)  -->
<!DOCTYPE svg PUBLIC "-//W3C//DTD SVG 1.1//EN" "http://www.w3.org/Graphics/SVG/1.1/DTD/svg11.dtd">
<svg version="1.1" id="Layer_1" xmlns="http://www.w3.org/2000/svg" xmlns:xlink="http://www.w3.org/1999/xlink" x="0px" y="0px"
	 width="50px" height="50px" viewBox="0 0 50 50" enable-background="new 0 0 50 50" xml:space="preserve">
<g>
	<polygon fill="#666666" points="3.063,11.67 3.063,13.132 45.478,13.132 45.478,38.328 46.938,38.328 46.938,11.67 	"/>
	<polygon fill="#666666" points="5.985,8.744 5.985,10.209 48.402,10.209 48.402,35.402 49.864,35.402 49.864,8.744 	"/>
	<g>
		<path fill="#666666" d="M0.136,14.597v26.659h43.878V14.597H0.136z M22.073,37.779c-5.44,0-9.854-4.412-9.854-9.854
			c0-5.442,4.413-9.855,9.854-9.855c5.442,0,9.855,4.413,9.855,9.855C31.931,33.367,27.519,37.779,22.073,37.779z"/>
		<path fill="#666666" d="M25.19,27.758c-0.474-0.326-1.374-0.676-2.7-1.045v-4.177c0.789,0.028,1.362,0.33,1.722,0.908
			c0.194,0.313,0.312,0.689,0.35,1.124h1.503c-0.031-0.971-0.35-1.75-0.959-2.339c-0.605-0.59-1.481-0.925-2.615-1.004v-1.123
			h-0.813v1.141c-1.149,0.012-2.041,0.366-2.681,1.064c-0.637,0.695-0.955,1.479-0.955,2.349c0,0.971,0.297,1.732,0.887,2.279
			c0.591,0.549,1.509,0.939,2.749,1.176v4.672c-0.969-0.08-1.627-0.445-1.984-1.088c-0.204-0.357-0.328-0.934-0.372-1.715h-1.52
			c0,0.986,0.162,1.762,0.489,2.34c0.594,1.072,1.723,1.658,3.387,1.768v1.66h0.813v-1.66c1.032-0.115,1.825-0.35,2.374-0.703
			c0.99-0.641,1.485-1.719,1.485-3.24C26.347,29.088,25.963,28.295,25.19,27.758z M21.677,26.551
			c-0.641-0.127-1.146-0.35-1.527-0.668c-0.379-0.32-0.566-0.765-0.566-1.329c0-0.469,0.161-0.917,0.479-1.347
			c0.319-0.429,0.859-0.656,1.614-0.686V26.551z M24.514,31.752c-0.372,0.668-1.047,1.027-2.023,1.072v-4.51
			c0.714,0.195,1.221,0.4,1.525,0.617c0.524,0.375,0.79,0.914,0.79,1.631C24.806,31.012,24.707,31.41,24.514,31.752z"/>
	</g>
</g>
</svg>
