<?xml version="1.0" encoding="utf-8"?>
<!-- Generator: Adobe Illustrator 15.0.2, SVG Export Plug-In . SVG Version: 6.00 Build 0)  -->
<!DOCTYPE svg PUBLIC "-//W3C//DTD SVG 1.1//EN" "http://www.w3.org/Graphics/SVG/1.1/DTD/svg11.dtd">
<svg version="1.1" id="Layer_1" xmlns="http://www.w3.org/2000/svg" xmlns:xlink="http://www.w3.org/1999/xlink" x="0px" y="0px"
	 width="40px" height="40px" viewBox="0 0 40 40" enable-background="new 0 0 40 40" xml:space="preserve">
<g>
	<g>
		<path fill="#666666" stroke="#F3F3F3" stroke-miterlimit="10" d="M16.007,25.359c-1.506-0.258-3.569-1.719-3.569-2.353v-1.603
			c0-0.598,0.808-1.715,1.152-2.744c0.033-0.097,0.241,0.014,0.442-0.231c0.38-0.468,0.436-1.178,0.523-1.502
			c0.138-0.509-0.48-0.529-0.48-0.529s0.461-2.672,0.052-4.359c-0.554-2.297-3.531-3.455-4.696-3.455
			c-1.166,0-4.139,1.158-4.695,3.455c-0.408,1.687,0.061,4.359,0.061,4.359s-0.595,0.02-0.458,0.529
			c0.088,0.324,0.186,1.034,0.568,1.502c0.2,0.245,0.321,0.134,0.354,0.231c0.343,1.029,1.152,2.146,1.152,2.744v1.603
			c0,0.634-2.063,2.095-3.57,2.353c-1.934,0.328-2.891,1.666-2.438,5c0.228,1.666,4.623,2.382,8.976,2.32
			c4.354,0.062,8.815-0.654,9.042-2.32C18.877,27.025,17.941,25.688,16.007,25.359"/>
	</g>
	<g>
		<path fill="#666666" stroke="#F3F3F3" stroke-width="0.589" stroke-miterlimit="10" d="M16.007,25.359
			c-1.506-0.258-3.569-1.719-3.569-2.353v-1.603c0-0.598,0.808-1.715,1.152-2.744c0.033-0.097,0.241,0.014,0.442-0.231
			c0.38-0.468,0.436-1.178,0.523-1.502c0.138-0.509-0.48-0.529-0.48-0.529s0.461-2.672,0.052-4.359
			c-0.554-2.297-3.531-3.455-4.696-3.455c-1.166,0-4.139,1.158-4.695,3.455c-0.408,1.687,0.061,4.359,0.061,4.359
			s-0.595,0.02-0.458,0.529c0.088,0.324,0.186,1.034,0.568,1.502c0.2,0.245,0.321,0.134,0.354,0.231
			c0.343,1.029,1.152,2.146,1.152,2.744v1.603c0,0.634-2.063,2.095-3.57,2.353c-1.934,0.328-2.891,1.666-2.438,5
			c0.228,1.666,4.623,2.382,8.976,2.32c4.354,0.062,8.815-0.654,9.042-2.32C18.877,27.025,17.941,25.688,16.007,25.359z"/>
	</g>
	<g>
		<path fill="#666666" stroke="#F3F3F3" stroke-miterlimit="10" d="M37.177,25.359c-1.506-0.258-3.569-1.719-3.569-2.353v-1.603
			c0-0.598,0.809-1.715,1.152-2.744c0.033-0.097,0.241,0.014,0.441-0.231c0.38-0.468,0.438-1.178,0.523-1.502
			c0.137-0.509-0.48-0.529-0.48-0.529s0.461-2.672,0.053-4.359c-0.555-2.297-3.531-3.455-4.695-3.455
			c-1.166,0-4.14,1.158-4.695,3.455c-0.408,1.687,0.062,4.359,0.062,4.359s-0.596,0.02-0.458,0.529
			c0.088,0.324,0.186,1.034,0.567,1.502c0.2,0.245,0.321,0.134,0.354,0.231c0.342,1.029,1.15,2.146,1.15,2.744v1.603
			c0,0.634-2.062,2.095-3.568,2.353c-1.936,0.328-2.893,1.666-2.438,5c0.229,1.666,4.623,2.382,8.977,2.32
			c4.354,0.062,8.814-0.654,9.042-2.32C40.047,27.025,39.109,25.688,37.177,25.359"/>
	</g>
	<g>
		<path fill="#666666" stroke="#F3F3F3" stroke-width="0.589" stroke-miterlimit="10" d="M37.177,25.359
			c-1.506-0.258-3.569-1.719-3.569-2.353v-1.603c0-0.598,0.809-1.715,1.152-2.744c0.033-0.097,0.241,0.014,0.441-0.231
			c0.38-0.468,0.438-1.178,0.523-1.502c0.137-0.509-0.48-0.529-0.48-0.529s0.461-2.672,0.053-4.359
			c-0.555-2.297-3.531-3.455-4.695-3.455c-1.166,0-4.14,1.158-4.695,3.455c-0.408,1.687,0.062,4.359,0.062,4.359
			s-0.596,0.02-0.458,0.529c0.088,0.324,0.186,1.034,0.567,1.502c0.2,0.245,0.321,0.134,0.354,0.231
			c0.342,1.029,1.15,2.146,1.15,2.744v1.603c0,0.634-2.062,2.095-3.568,2.353c-1.936,0.328-2.893,1.666-2.438,5
			c0.229,1.666,4.623,2.382,8.977,2.32c4.354,0.062,8.814-0.654,9.042-2.32C40.047,27.025,39.109,25.688,37.177,25.359z"/>
	</g>
	<g>
		<path fill="#666666" stroke="#F3F3F3" stroke-miterlimit="10" d="M29.504,26.795c-2.061-0.352-4.497-2.259-4.604-2.794
			l0.002-2.267c0-0.34,0.377-1.075,0.709-1.727c0.283-0.554,0.584-1.146,0.806-1.726c0.187-0.054,0.418-0.165,0.627-0.419
			c0.515-0.635,0.679-1.47,0.785-2.023L27.9,15.5c0.127-0.468-0.014-0.794-0.154-0.985c-0.122-0.166-0.278-0.278-0.436-0.354
			c0.16-1.158,0.463-3.95-0.016-5.925c-0.841-3.481-5.245-5.38-7.272-5.38c-2.026,0-6.427,1.899-7.27,5.38
			c-0.479,1.98-0.166,4.778-0.002,5.933c-0.145,0.074-0.29,0.182-0.405,0.337c-0.142,0.191-0.283,0.519-0.156,0.994l0.068,0.285
			c0.129,0.568,0.324,1.426,0.855,2.077c0.17,0.209,0.338,0.322,0.488,0.386c0.222,0.592,0.529,1.197,0.819,1.762
			c0.332,0.65,0.709,1.387,0.709,1.725v2.285c-0.106,0.517-2.544,2.424-4.604,2.774c-3.348,0.57-4.607,3.047-3.962,7.794
			c0.52,3.809,11.252,3.85,13.398,3.818c2.145,0.029,12.956-0.01,13.475-3.818C34.082,29.839,32.832,27.361,29.504,26.795z"/>
	</g>
	<g>
		<path fill="#666666" stroke="#F3F3F3" stroke-width="1.178" stroke-miterlimit="10" d="M29.504,26.795
			c-2.061-0.352-4.497-2.259-4.604-2.794l0.002-2.267c0-0.34,0.377-1.075,0.709-1.727c0.283-0.554,0.584-1.146,0.806-1.726
			c0.187-0.054,0.418-0.165,0.627-0.419c0.515-0.635,0.679-1.47,0.785-2.023L27.9,15.5c0.127-0.468-0.014-0.794-0.154-0.985
			c-0.122-0.166-0.278-0.278-0.436-0.354c0.16-1.158,0.463-3.95-0.016-5.925c-0.841-3.481-5.245-5.38-7.272-5.38
			c-2.026,0-6.427,1.899-7.27,5.38c-0.479,1.98-0.166,4.778-0.002,5.933c-0.145,0.074-0.29,0.182-0.405,0.337
			c-0.142,0.191-0.283,0.519-0.156,0.994l0.068,0.285c0.129,0.568,0.324,1.426,0.855,2.077c0.17,0.209,0.338,0.322,0.488,0.386
			c0.222,0.592,0.529,1.197,0.819,1.762c0.332,0.65,0.709,1.387,0.709,1.725v2.285c-0.106,0.517-2.544,2.424-4.604,2.774
			c-3.348,0.57-4.607,3.047-3.962,7.794c0.52,3.809,11.252,3.85,13.398,3.818c2.145,0.029,12.956-0.01,13.475-3.818
			C34.082,29.839,32.832,27.361,29.504,26.795z"/>
	</g>
</g>
</svg>
