<?xml version="1.0" encoding="utf-8"?>
<!-- Generator: Adobe Illustrator 15.0.2, SVG Export Plug-In . SVG Version: 6.00 Build 0)  -->
<!DOCTYPE svg PUBLIC "-//W3C//DTD SVG 1.1//EN" "http://www.w3.org/Graphics/SVG/1.1/DTD/svg11.dtd">
<svg version="1.1" id="Layer_1" xmlns="http://www.w3.org/2000/svg" xmlns:xlink="http://www.w3.org/1999/xlink" x="0px" y="0px"
	 width="512px" height="512px" viewBox="0 0 512 512" enable-background="new 0 0 512 512" xml:space="preserve">
<g>
	<g>
		<path fill="#666666" d="M429.496,150.25c29.2,0,52.875-23.675,52.875-52.875c0-29.2-23.675-52.875-52.875-52.875
			s-52.875,23.675-52.875,52.875C376.621,126.575,400.296,150.25,429.496,150.25z M350.184,176.688v132.188h26.438V467.5h105.75
			V308.875h26.438V176.688H350.184z"/>
	</g>
	<g>
		<path fill="#666666" d="M256,150.25c29.2,0,52.875-23.675,52.875-52.875c0-29.2-23.675-52.875-52.875-52.875
			s-52.875,23.675-52.875,52.875C203.125,126.575,226.8,150.25,256,150.25z M176.688,176.688v132.188h26.438V467.5h105.75V308.875
			h26.438V176.688H176.688z"/>
	</g>
	<g>
		<path fill="#666666" d="M82.504,150.25c29.2,0,52.875-23.675,52.875-52.875c0-29.2-23.675-52.875-52.875-52.875
			S29.629,68.175,29.629,97.375C29.629,126.575,53.304,150.25,82.504,150.25z M3.191,176.688v132.188h26.438V467.5h105.75V308.875
			h26.438V176.688H3.191z"/>
	</g>
</g>
</svg>
