<?xml version="1.0" encoding="utf-8"?>
<!-- Generator: Adobe Illustrator 15.0.2, SVG Export Plug-In . SVG Version: 6.00 Build 0)  -->
<!DOCTYPE svg PUBLIC "-//W3C//DTD SVG 1.1//EN" "http://www.w3.org/Graphics/SVG/1.1/DTD/svg11.dtd">
<svg version="1.1" id="Layer_1" xmlns="http://www.w3.org/2000/svg" xmlns:xlink="http://www.w3.org/1999/xlink" x="0px" y="0px"
	 width="40px" height="40px" viewBox="0 0 40 40" enable-background="new 0 0 40 40" xml:space="preserve">
<g>
	<g>
		<path fill="#666666" d="M2.857,28.572C1.277,28.572,0,29.849,0,31.429s1.277,2.857,2.857,2.857c1.578,0,2.856-1.277,2.856-2.857
			C5.714,29.851,4.436,28.572,2.857,28.572"/>
	</g>
	<g>
		<path fill="#666666" d="M2.857,17.143C1.277,17.143,0,18.421,0,20s1.277,2.856,2.857,2.856c1.578,0,2.856-1.277,2.856-2.856
			S4.436,17.143,2.857,17.143"/>
	</g>
	<g>
		<path fill="#666666" d="M2.857,5.715C1.277,5.715,0,6.993,0,8.572s1.277,2.856,2.857,2.856c1.578,0,2.856-1.277,2.856-2.856
			S4.436,5.715,2.857,5.715"/>
	</g>
	<g>
		<path fill="#666666" d="M40,7.143c0-0.79-0.639-1.429-1.43-1.429H12.857c-0.789,0-1.428,0.639-1.428,1.429V10
			c0,0.79,0.639,1.429,1.428,1.429H38.57C39.361,11.429,40,10.79,40,10V7.143z"/>
	</g>
	<g>
		<path fill="#666666" d="M40,18.572c0-0.79-0.639-1.431-1.43-1.431H12.857c-0.789,0-1.428,0.641-1.428,1.431v2.856
			c0,0.789,0.639,1.43,1.428,1.43H38.57c0.791,0,1.43-0.641,1.43-1.43V18.572z"/>
	</g>
	<g>
		<path fill="#666666" d="M40,30c0-0.79-0.639-1.429-1.43-1.429H12.857c-0.789,0-1.428,0.639-1.428,1.429v2.856
			c0,0.791,0.639,1.43,1.428,1.43H38.57c0.791,0,1.43-0.639,1.43-1.43V30z"/>
	</g>
</g>
</svg>
