<?xml version="1.0" encoding="utf-8"?>
<!-- Generator: Adobe Illustrator 15.0.2, SVG Export Plug-In . SVG Version: 6.00 Build 0)  -->
<!DOCTYPE svg PUBLIC "-//W3C//DTD SVG 1.1//EN" "http://www.w3.org/Graphics/SVG/1.1/DTD/svg11.dtd">
<svg version="1.1" id="Layer_1" xmlns="http://www.w3.org/2000/svg" xmlns:xlink="http://www.w3.org/1999/xlink" x="0px" y="0px"
	 width="40px" height="40px" viewBox="0 0 40 40" enable-background="new 0 0 40 40" xml:space="preserve">
<g>
	<g>
		<path fill="#666666" d="M31.077,31.668l-1.218,0.795l0.086,1.451c0.09,1.549,0.113,2.734,0.102,3.539
			c-0.332,0.023-0.73,0.039-1.186,0.039h-0.002c-0.799,0-1.366-0.047-1.713-0.092c-0.018-0.023-0.037-0.051-0.058-0.078
			c-0.422-0.584-1.005-1.385-1.633-2.113l-0.849-0.986l-1.291,0.129c-0.584,0.06-1.174,0.088-1.772,0.088
			c-0.812,0-1.597-0.051-2.36-0.133l-1.3-0.133l-0.852,0.99c-0.765,0.889-1.491,1.73-1.927,2.223
			c-0.336,0.049-0.931,0.104-1.805,0.104c-0.455,0-0.854-0.017-1.186-0.039c-0.006-0.75,0.021-1.931,0.141-3.763l0.09-1.414
			l-1.16-0.807c-2.244-1.562-3.982-3.672-5.162-6.27l-0.516-1.135l-1.216-0.271c-0.581-0.133-1.235-0.314-1.717-0.475
			c-0.103-1.098-0.103-2.941,0.006-3.959c0.39-0.166,1.008-0.408,1.552-0.588l1.025-0.337l0.459-0.982
			c1.523-3.261,3.426-5.815,5.65-7.59l2.157-1.721l-1.918-1.987c-0.548-0.567-1.192-1.68-1.815-2.759
			c-0.103-0.181-0.205-0.361-0.31-0.537c1.337,0.278,2.82,0.693,4.069,1.104c1.258,0.415,2.318,1.083,2.91,1.835L17.25,6.93
			l1.423-0.2c0.92-0.132,1.884-0.198,2.871-0.198c8.797,0,15.955,6.26,15.955,13.953C37.5,24.926,35.159,29,31.077,31.668
			 M21.545,4.025c-1.125,0-2.197,0.076-3.22,0.22c-0.873-1.109-2.288-2.071-4.097-2.666C11.395,0.646,4.844-1.112,4.844,0.99
			c1.719,1.184,3.17,5.149,4.869,6.907c-2.662,2.129-4.738,5.027-6.359,8.491c0,0-2.31,0.762-2.914,1.365
			c-0.604,0.608-0.566,6.737,0,7.304c0.565,0.57,3.311,1.183,3.311,1.183c1.368,3.014,3.412,5.481,6.012,7.29
			c-0.136,2.107-0.293,5.585,0.117,5.998c0.594,0.595,5.997,0.658,6.656,0c0.277-0.278,1.299-1.454,2.39-2.725
			c0.851,0.088,1.72,0.146,2.62,0.146c0.682,0,1.355-0.035,2.02-0.103c0.965,1.125,1.812,2.432,2.062,2.684
			c0.659,0.66,6.066,0.595,6.66,0c0.373-0.375,0.277-3.646,0.154-5.762C37.023,30.777,40,25.941,40,20.485
			C40,11.395,31.738,4.025,21.545,4.025"/>
	</g>
	<g>
		<path fill="#666666" d="M27.305,9.958c-2.961-0.884-6.201,0.403-6.437,1.191c-0.231,0.789,3.067-0.244,6.028,0.64
			c2.967,0.881,5.795,4.58,6.027,3.789C33.157,14.792,30.271,10.841,27.305,9.958"/>
	</g>
	<g>
		<path fill="#666666" d="M12.45,13.356c-0.863,0-1.563,0.703-1.563,1.568c0,0.864,0.7,1.567,1.563,1.567
			c0.862,0,1.562-0.703,1.562-1.567C14.012,14.059,13.312,13.356,12.45,13.356"/>
	</g>
</g>
</svg>
