<?xml version="1.0" encoding="utf-8"?>
<!-- Generator: Adobe Illustrator 15.0.2, SVG Export Plug-In . SVG Version: 6.00 Build 0)  -->
<!DOCTYPE svg PUBLIC "-//W3C//DTD SVG 1.1//EN" "http://www.w3.org/Graphics/SVG/1.1/DTD/svg11.dtd">
<svg version="1.1" id="Layer_1" xmlns="http://www.w3.org/2000/svg" xmlns:xlink="http://www.w3.org/1999/xlink" x="0px" y="0px"
	 width="40px" height="40px" viewBox="0 0 40 40" enable-background="new 0 0 40 40" xml:space="preserve">
<g>
	<g>
		<path fill="#666666" d="M37.143,27.144c0,2.363-1.99,4.285-4.356,4.285H7.072c-2.364,0-4.215-1.922-4.215-4.285V17.143h34.286
			V27.144z M7.072,8.571h25.713c1.863,0,3.432,1.199,4.021,2.856H3.05C3.641,9.771,5.212,8.571,7.072,8.571 M40,12.856
			c0-3.944-3.197-7.143-7.143-7.143H7.143C3.197,5.714,0,8.912,0,12.856v14.287c0,3.945,3.197,7.143,7.143,7.143h25.714
			c3.945,0,7.143-3.197,7.143-7.143V12.856z"/>
	</g>
	<g>
		<path fill="#666666" d="M7.072,22.856H18.5c0.789,0,1.428-0.639,1.428-1.428S19.289,20,18.5,20H7.072
			c-0.79,0-1.429,0.64-1.429,1.429C5.643,22.22,6.282,22.856,7.072,22.856"/>
	</g>
	<g>
		<path fill="#666666" d="M29.928,22.856h2.856c0.793,0,1.43-0.639,1.43-1.428S33.577,20,32.784,20h-2.856
			c-0.787,0-1.43,0.64-1.43,1.429C28.498,22.22,29.141,22.856,29.928,22.856"/>
	</g>
	<g>
		<path fill="#666666" d="M7.072,28.571h5.714c0.79,0,1.429-0.639,1.429-1.428c0-0.791-0.639-1.43-1.429-1.43H7.072
			c-0.79,0-1.429,0.639-1.429,1.43C5.643,27.933,6.282,28.571,7.072,28.571"/>
	</g>
</g>
</svg>
