<?xml version="1.0" encoding="utf-8"?>
<!-- Generator: Adobe Illustrator 15.0.2, SVG Export Plug-In . SVG Version: 6.00 Build 0)  -->
<!DOCTYPE svg PUBLIC "-//W3C//DTD SVG 1.1//EN" "http://www.w3.org/Graphics/SVG/1.1/DTD/svg11.dtd">
<svg version="1.1" id="Layer_1" xmlns="http://www.w3.org/2000/svg" xmlns:xlink="http://www.w3.org/1999/xlink" x="0px" y="0px"
	 width="40px" height="40px" viewBox="0 0 40 40" enable-background="new 0 0 40 40" xml:space="preserve">
<g>
	<rect y="4.309" fill="#666666" width="40" height="6.667"/>
	<rect x="16.667" y="12.357" fill="#666666" width="6.667" height="6.667"/>
	<rect x="33.333" y="12.357" fill="#666666" width="6.667" height="6.667"/>
	<rect x="33.333" y="20.691" fill="#666666" width="6.667" height="6.666"/>
	<rect x="33.333" y="29.025" fill="#666666" width="6.666" height="6.666"/>
	<rect x="16.667" y="20.691" fill="#666666" width="6.667" height="6.666"/>
	<rect x="16.667" y="29.025" fill="#666666" width="6.666" height="6.666"/>
	<rect x="8.333" y="20.691" fill="#666666" width="6.667" height="6.666"/>
	<rect x="8.333" y="29.025" fill="#666666" width="6.667" height="6.666"/>
	<rect y="20.691" fill="#666666" width="6.666" height="6.666"/>
	<rect y="29.025" fill="#666666" width="6.666" height="6.666"/>
	<rect y="12.358" fill="#666666" width="6.666" height="6.666"/>
	<rect x="8.333" y="12.357" fill="#666666" width="6.667" height="6.667"/>
	<rect x="25" y="12.357" fill="#666666" width="6.667" height="6.667"/>
	<rect x="25" y="20.691" fill="#666666" width="6.667" height="6.666"/>
	<rect x="25" y="29.025" fill="#666666" width="6.666" height="6.666"/>
</g>
</svg>
